<svg width="72" height="72" viewBox="0 0 72 72" fill="none" xmlns="http://www.w3.org/2000/svg">
<g filter="url(#filter0_d_3282_9131)">
<path d="M36 63.314C53.2942 63.314 67.3139 49.2943 67.3139 32.0001C67.3139 14.7059 53.2942 0.686157 36 0.686157C18.7058 0.686157 4.68604 14.7059 4.68604 32.0001C4.68604 49.2943 18.7058 63.314 36 63.314Z" fill="white"/>
<path d="M29.6972 33.2007C29.9475 33.3338 30.2111 33.4638 30.4863 33.5918C29.9065 33.8503 29.2326 34.1383 28.7404 34.3047C24.5427 35.721 20.8351 36.617 18.5017 37.1137C18.9523 38.6586 19.598 40.121 20.4172 41.467H34.91C35.358 41.467 35.7209 41.1041 35.7209 40.6561V37.7934C33.4367 37.6007 30.9055 36.8193 28.1401 35.4433C28.4332 35.3479 28.7276 35.2506 29.0259 35.1502C29.7311 34.9121 30.7078 34.4769 31.6038 34.0641C32.926 34.5575 34.4473 34.9134 36.0876 34.9134C37.3811 34.9134 38.7481 34.6926 40.1484 34.1434C42.3193 33.2929 43.5001 31.2878 42.9574 29.3761C42.7622 28.69 42.3763 28.107 41.8719 27.6558L41.8681 27.6468L41.7951 27.5854C41.7887 27.5802 41.7823 27.5764 41.7759 27.5713C41.6595 27.474 41.5385 27.3812 41.4105 27.298C41.655 27.0996 41.8963 26.9018 42.1356 26.7022C42.3545 27.5425 42.7212 28.411 43.3363 29.1386C44.1132 30.0564 45.1603 30.6068 46.4524 30.7822C46.0748 32.1806 44.6124 35.1438 41.5487 36.7386C40.1023 37.4919 38.4831 37.8535 36.7046 37.8375V40.6554C36.7046 41.1034 37.0675 41.4663 37.5155 41.4663H39.3535C39.671 41.4663 39.8841 41.1412 39.758 40.85L38.7814 38.6023C39.143 38.555 39.4937 38.4679 39.7638 38.3886L40.9919 41.0926C41.095 41.3198 41.3215 41.4657 41.5718 41.4657H51.5833C53.2633 38.7066 54.231 35.4663 54.231 31.9994C54.231 21.931 46.0691 13.769 36.0006 13.769C25.9321 13.769 17.7695 21.9316 17.7695 32.0001C17.7695 33.5534 17.9654 35.0612 18.3308 36.5012C21.7267 35.6743 26.8377 34.347 29.6972 33.2007ZM44.0204 28.5646C42.9292 27.2769 42.7372 25.3786 42.7257 24.3002L43.3926 24.8078C43.2121 26.793 43.8463 28.1889 44.6182 29.1303C44.3999 28.9665 44.2009 28.7777 44.0204 28.5646ZM49.2435 25.6052L49.2159 24.987C49.9327 25.2961 51.2262 25.8766 51.1865 26.0231C51.1539 26.1428 50.3462 26.0718 49.5993 26.0455L49.5743 26.0449C49.3279 26.0366 49.0911 26.034 48.8902 26.0449L49.2435 25.6052ZM48.5919 24.9454C48.4038 25.0638 48.1804 25.17 47.9603 25.1809C47.4374 25.2058 46.9887 25.1143 46.9887 25.1143C46.9055 24.9889 46.6687 24.7751 46.43 24.7374C45.8675 24.6478 45.4739 25.0407 45.4739 25.0407C45.4739 25.0407 45.7222 25.7057 46.1945 25.7812C46.4031 25.8145 46.7129 25.7556 46.8505 25.6967L46.8499 25.6986C47.4975 25.4599 47.9507 25.6724 48.295 25.9175C48.2252 26.034 48.1459 26.1486 48.0403 26.2535C47.1884 27.1034 46.8518 28.1569 46.6278 29.7114C45.7286 29.1879 44.0095 27.7838 44.2918 24.8462C46.3507 23.3249 48.1062 24.4302 48.5983 24.8097C48.5983 24.8487 48.5958 24.8967 48.5919 24.9454ZM46.2995 25.0778C46.2995 25.1668 46.2271 25.2391 46.1382 25.2391C46.0492 25.2391 45.9769 25.1668 45.9769 25.0778C45.9769 24.9889 46.0492 24.9166 46.1382 24.9166C46.2271 24.9166 46.2995 24.9889 46.2995 25.0778ZM47.7657 23.3895C46.7609 23.0574 45.3695 22.9812 43.8655 24.0462L42.6847 23.147L42.1465 21.6807C43.3593 21.6506 46.1868 21.778 47.7657 23.3895ZM41.8515 24.8775C41.8668 25.1342 41.8943 25.4119 41.9359 25.7044C41.4771 26.0929 41.0054 26.4814 40.5254 26.8654C40.4927 26.8545 40.4595 26.8462 40.4268 26.8359C40.343 26.8097 40.2579 26.7879 40.1715 26.7668C40.1356 26.7578 40.1011 26.7457 40.0646 26.738C40.7756 26.0942 41.3727 25.4727 41.8515 24.8775ZM36.0556 28.3668L38.27 27.6622C38.2918 27.6558 38.3142 27.6532 38.3359 27.6474C38.4531 27.6167 38.5695 27.5918 38.6867 27.5738C38.7027 27.5713 38.7187 27.5713 38.734 27.5687C38.7897 27.561 38.846 27.5566 38.9017 27.5521C38.9663 27.5463 39.0316 27.5406 39.0963 27.5386C39.1731 27.5367 39.2499 27.5399 39.3267 27.5431C39.399 27.5463 39.4707 27.5514 39.5417 27.5598C39.6198 27.5681 39.6979 27.5777 39.7747 27.5924C39.7996 27.5969 39.8239 27.6046 39.8489 27.6097L40.9484 28.1102C40.9977 28.6599 40.9273 30.0513 39.0668 30.4833C37.9891 30.7335 36.606 30.1146 35.0399 28.6906L36.0556 28.3668ZM34.0729 28.9978C35.7363 30.6094 37.2467 31.4305 38.5727 31.4305C38.8108 31.4305 39.0431 31.4042 39.2691 31.3518C40.0127 31.179 40.5529 30.8705 40.9439 30.4974C40.5299 31.1156 39.7875 31.6014 38.7206 31.9399C36.4838 32.6503 33.4643 31.1086 31.4803 29.8222L34.0729 28.9978ZM30.3948 30.1684C32.4191 31.5655 35.0918 33.0138 37.4783 33.0138C37.9999 33.0138 38.5075 32.9447 38.9913 32.7911C40.5132 32.3079 41.5135 31.5348 41.9641 30.4948C42.0556 30.2836 42.1158 30.0756 42.1574 29.8721C42.4115 31.273 41.4854 32.6612 39.8239 33.3121C34.5228 35.3895 29.5756 32.2522 27.8713 30.9716L30.3948 30.1684Z" fill="black"/>
<path d="M21.5229 43.0758C24.8548 47.424 30.0983 50.2304 35.9997 50.2304C41.9012 50.2304 47.1447 47.424 50.4765 43.0758H21.5229Z" fill="black"/>
<path d="M36 64C18.3552 64 4 49.6448 4 32C4 14.3552 18.3552 0 36 0C53.6448 0 68 14.3552 68 32C68 49.6448 53.6448 64 36 64ZM36 1.152C18.9907 1.152 5.152 14.9907 5.152 32C5.152 49.0093 18.9901 62.848 36 62.848C53.0099 62.848 66.848 49.0099 66.848 32C66.848 14.9901 53.0093 1.152 36 1.152Z" fill="#1B75BC"/>
<path d="M36.0001 2.27136C19.5816 2.27136 6.27148 15.5814 6.27148 32C6.27148 48.4186 19.5816 61.7286 36.0001 61.7286C52.4187 61.7286 65.7288 48.4186 65.7288 32C65.7288 15.5814 52.4187 2.27136 36.0001 2.27136ZM36.0001 51.5366C25.2104 51.5366 16.4635 42.7898 16.4635 32C16.4635 21.2102 25.2104 12.4634 36.0001 12.4634C46.7899 12.4634 55.5368 21.2102 55.5368 32C55.5368 42.7898 46.7899 51.5366 36.0001 51.5366Z" fill="#1B75BC"/>
<path d="M17.2555 12.7742C17.699 12.6699 18.0894 12.7678 18.426 13.068C18.659 13.2754 18.8011 13.5237 18.8535 13.8123C18.906 14.101 18.8593 14.3896 18.714 14.6782C19.0199 14.444 19.3438 14.3333 19.6862 14.3474C20.0279 14.3614 20.3422 14.4958 20.6295 14.7518C21.0033 15.0853 21.1671 15.4962 21.1204 15.9838C21.0737 16.4715 20.8241 16.9688 20.3723 17.4763L18.5214 19.5525L14.1572 15.6626L15.9467 13.6549C16.3755 13.1717 16.8119 12.8786 17.2555 12.7742ZM17.923 14.7173C17.9326 14.5355 17.8603 14.3755 17.706 14.2386C17.5563 14.1054 17.3931 14.0542 17.2151 14.0862C17.0372 14.1182 16.8676 14.2296 16.7051 14.4203L15.8379 15.3931L16.7915 16.2437L17.6587 15.2709C17.8263 15.084 17.914 14.899 17.923 14.7173ZM19.8097 16.2034C19.8347 15.987 19.7643 15.8046 19.5979 15.6562C19.4398 15.5154 19.2561 15.4706 19.0462 15.5224C18.8363 15.5742 18.6295 15.7182 18.426 15.9544L17.5595 16.9272L18.5943 17.8494L19.4615 16.8766C19.6689 16.6443 19.7847 16.4197 19.8097 16.2034Z" fill="white"/>
<path d="M19.6274 10.2425L20.7276 9.51416L23.319 13.4284L25.4086 12.0454L26.0447 13.0066L22.855 15.118L19.6274 10.2425Z" fill="white"/>
<path d="M28.028 10.6604C28.3282 10.8172 28.6661 10.8338 29.0418 10.7103C29.4066 10.5906 29.6607 10.3813 29.8028 10.0831C29.9448 9.78485 29.9506 9.43413 29.8188 9.03221L28.75 5.77013L30.0044 5.35925L31.0732 8.62133C31.2325 9.10837 31.2716 9.56277 31.1903 9.98517C31.109 10.4076 30.9144 10.7756 30.6072 11.0905C30.3 11.4053 29.8949 11.6447 29.3925 11.8092C28.8895 11.9743 28.4191 12.0217 27.98 11.9513C27.541 11.8815 27.1621 11.7004 26.844 11.4092C26.526 11.118 26.2872 10.7289 26.1279 10.2418L25.0591 6.97973L26.3128 6.56885L27.3816 9.83093C27.5128 10.2271 27.7272 10.5042 28.028 10.6604Z" fill="white"/>
<path d="M33.0684 4.89466L37.5183 4.76794L37.5496 5.8617L34.4188 5.9513L34.4552 7.22042L37.2687 7.14042L37.3 8.23418L34.4866 8.31418L34.5237 9.60826L37.7461 9.51674L37.7775 10.6105L33.236 10.7398L33.0684 4.89466Z" fill="white"/>
<path d="M44.143 11.7595C43.7033 11.9675 43.1939 11.9726 42.6147 11.7736C41.8985 11.5278 41.3942 11.0337 41.1011 10.292L41.9811 9.60526C42.102 9.87086 42.2486 10.0917 42.4201 10.2683C42.5916 10.4449 42.7651 10.5633 42.9385 10.6229C43.1491 10.6952 43.334 10.6881 43.4934 10.6011C43.6528 10.5147 43.7718 10.3553 43.8512 10.1237L44.7676 7.45358L42.8636 6.80014L43.2272 5.74158L46.3875 6.82574L45.0972 10.5864C44.9008 11.1605 44.582 11.5515 44.143 11.7595Z" fill="white"/>
<path d="M49.2846 15.2146L49.531 14.0146L47.2776 12.5164L46.2664 13.2082L45.1323 12.4543L50.4834 8.9906L51.6174 9.74452L50.4603 15.996L49.2846 15.2146ZM48.2261 11.8732L49.7634 12.8952L50.2562 10.4946L48.2261 11.8732Z" fill="white"/>
<path d="M58.3505 16.2834L53.9659 17.2754L52.5419 18.5145L51.6753 17.5193L53.0743 16.302L54.666 12.0492L55.5377 13.0508L54.5406 15.9001L57.4782 15.2812L58.3505 16.2834Z" fill="white"/>
<path d="M16.0634 40.9785L18.1095 44.6476L17.1495 45.1731L15.7505 42.6636L14.4961 43.3632L15.7812 45.6684L14.818 46.2054L13.5329 43.9001L11.6001 44.9779L10.9575 43.8252L16.0634 40.9785Z" fill="white"/>
<path d="M17.1846 52.3079L17.6928 51.193L15.8304 49.2295L14.6899 49.6782L13.7529 48.6906L19.7421 46.5095L20.679 47.497L18.1555 53.3326L17.1846 52.3079ZM16.8992 48.8148L18.1696 50.1543L19.1859 47.9239L16.8992 48.8148Z" fill="white"/>
<path d="M24.8646 52.1158C24.6329 51.8483 24.4146 51.6525 24.2098 51.5283C24.0146 51.4099 23.838 51.3517 23.6806 51.3542C23.5231 51.3562 23.4022 51.4266 23.319 51.5648C23.2121 51.7408 23.2127 51.9251 23.3209 52.1178C23.429 52.3104 23.6242 52.5606 23.9065 52.8678C24.1887 53.1757 24.4102 53.4464 24.5708 53.6806C24.7314 53.9149 24.83 54.1798 24.8658 54.4749C24.9017 54.7699 24.8204 55.0822 24.6207 55.4106C24.4274 55.7299 24.1759 55.9533 23.8668 56.0819C23.5577 56.2106 23.2198 56.2445 22.8524 56.185C22.485 56.1248 22.1132 55.9808 21.7369 55.753C21.3324 55.5072 20.9778 55.1949 20.6738 54.8154C20.3698 54.4358 20.1503 54.0358 20.0146 53.6147L21.0233 52.9664C21.1372 53.3478 21.3164 53.7075 21.5615 54.0442C21.8066 54.3814 22.0646 54.6323 22.3359 54.7968C22.5689 54.9382 22.7775 55.0061 22.9599 54.999C23.143 54.9926 23.2831 54.9088 23.3817 54.7469C23.4598 54.6182 23.4796 54.4858 23.4418 54.3488C23.4041 54.2118 23.3337 54.0768 23.2294 53.9418C23.1257 53.8067 22.9746 53.6346 22.7769 53.4234C22.4914 53.12 22.2694 52.8557 22.1106 52.6291C21.9513 52.4026 21.8527 52.144 21.8143 51.8534C21.7753 51.5629 21.854 51.2557 22.0505 50.9318C22.2322 50.6317 22.4729 50.4179 22.7718 50.2899C23.0706 50.1619 23.4022 50.1248 23.7663 50.1798C24.1305 50.2342 24.5055 50.3789 24.8908 50.6125C25.2338 50.8205 25.5417 51.0752 25.8143 51.3773C26.087 51.6794 26.3014 51.9917 26.4575 52.3142L25.4546 52.9856C25.2934 52.6733 25.0962 52.3834 24.8646 52.1158Z" fill="white"/>
<path d="M27.1886 52.0762L31.8542 53.5277L31.5221 54.5965L29.8152 54.0653L28.411 58.5792L27.1508 58.1869L28.555 53.673L26.8564 53.1443L27.1886 52.0762Z" fill="white"/>
<path d="M32.6701 53.6345L37.1155 53.872L37.0573 54.9644L33.9296 54.7974L33.8618 56.0652L36.6726 56.2156L36.6144 57.3081L33.8035 57.1577L33.7344 58.4505L36.9536 58.6227L36.8953 59.7152L32.3584 59.4726L32.6701 53.6345Z" fill="white"/>
<path d="M42.2388 52.9222L43.4599 52.6432L44.763 58.343L43.5905 58.6112L39.9931 55.5782L40.8308 59.2422L39.6014 59.5232L38.2983 53.824L39.4708 53.5558L43.0804 56.6035L42.2388 52.9222Z" fill="white"/>
<path d="M44.6777 52.1005L48.5696 49.9392L49.1008 50.896L46.3629 52.416L46.9792 53.5258L49.44 52.1594L49.9712 53.1162L47.5104 54.4826L48.1389 55.6141L50.9574 54.0487L51.4886 55.0055L47.5161 57.2115L44.6777 52.1005Z" fill="white"/>
<path d="M56.1942 50.8916L54.3632 50.347L54.2736 50.4347L53.4026 51.2878L54.5712 52.4814L53.6285 53.4049L49.5376 49.2283L51.3514 47.4516C51.8966 46.9179 52.4419 46.6312 52.9878 46.5921C53.5338 46.5524 54.0323 46.7636 54.4842 47.2244C54.7997 47.547 55.0032 47.8875 55.0941 48.2465C55.185 48.6062 55.1613 48.9697 55.0237 49.3384L57.2624 49.8459L56.1942 50.8916ZM52.6314 50.5L53.5024 49.6468C53.7648 49.3896 53.9075 49.131 53.9299 48.8718C53.9523 48.612 53.8486 48.3649 53.6189 48.13C53.393 47.8996 53.1517 47.7947 52.8957 47.8152C52.6397 47.8363 52.3798 47.9752 52.1174 48.2324L51.2464 49.0856L52.6314 50.5Z" fill="white"/>
<path d="M56.2406 42.9069C55.9756 43.1418 55.7824 43.362 55.6608 43.568C55.5443 43.7652 55.4886 43.9418 55.4924 44.0992C55.4963 44.2567 55.568 44.3764 55.7068 44.4589C55.8841 44.5639 56.0684 44.5613 56.2598 44.4506C56.4512 44.3405 56.6988 44.1428 57.0035 43.8567C57.3081 43.5706 57.5763 43.3466 57.8092 43.1828C58.0416 43.0189 58.3052 42.9178 58.6003 42.8781C58.8953 42.8391 59.2076 42.9172 59.5385 43.1124C59.8598 43.3024 60.0864 43.5508 60.2182 43.858C60.3501 44.1658 60.3885 44.5037 60.3328 44.8711C60.2771 45.2391 60.1376 45.6128 59.9136 45.9911C59.6729 46.3987 59.3645 46.7565 58.9888 47.0643C58.6124 47.3728 58.215 47.5968 57.7958 47.737L57.136 46.736C57.5161 46.6176 57.8732 46.4346 58.208 46.1856C58.5427 45.9373 58.7904 45.6762 58.9516 45.4029C59.0905 45.168 59.1558 44.9594 59.1475 44.7764C59.1392 44.5933 59.0534 44.4538 58.8902 44.3578C58.7609 44.281 58.6278 44.2624 58.4915 44.3015C58.3552 44.3412 58.2201 44.4128 58.087 44.5184C57.9532 44.624 57.7824 44.7764 57.5737 44.9767C57.2742 45.2653 57.0118 45.49 56.7872 45.6519C56.5625 45.8138 56.3052 45.9156 56.0153 45.9572C55.7254 45.9994 55.4176 45.9245 55.0912 45.7319C54.7891 45.5533 54.5721 45.3152 54.4409 45.0176C54.3097 44.72 54.2688 44.3892 54.3193 44.0244C54.3699 43.6596 54.51 43.2832 54.7392 42.8948C54.9433 42.5498 55.1942 42.2388 55.4937 41.9629C55.7926 41.6864 56.1024 41.4688 56.423 41.3088L57.1059 42.304C56.7936 42.4724 56.5056 42.672 56.2406 42.9069Z" fill="white"/>
<path d="M11.6652 26.8889L8.58105 29.2409V31.1084L11.6652 28.7558L14.7487 31.1084V29.2409L11.6652 26.8889Z" fill="white"/>
<path d="M60.4123 26.8889L57.3281 29.2409V31.1084L60.4123 28.7558L63.4958 31.1084V29.2409L60.4123 26.8889Z" fill="white"/>
<path d="M11.6652 30.6725L8.58105 33.0251V34.892L11.6652 32.54L14.7487 34.892V33.0251L11.6652 30.6725Z" fill="white"/>
<path d="M60.4123 30.6725L57.3281 33.0251V34.892L60.4123 32.54L63.4958 34.892V33.0251L60.4123 30.6725Z" fill="white"/>
</g>
<defs>
<filter id="filter0_d_3282_9131" x="0" y="0" width="72" height="72" filterUnits="userSpaceOnUse" color-interpolation-filters="sRGB">
<feFlood flood-opacity="0" result="BackgroundImageFix"/>
<feColorMatrix in="SourceAlpha" type="matrix" values="0 0 0 0 0 0 0 0 0 0 0 0 0 0 0 0 0 0 127 0" result="hardAlpha"/>
<feOffset dy="4"/>
<feGaussianBlur stdDeviation="2"/>
<feComposite in2="hardAlpha" operator="out"/>
<feColorMatrix type="matrix" values="0 0 0 0 0 0 0 0 0 0 0 0 0 0 0 0 0 0 0.25 0"/>
<feBlend mode="normal" in2="BackgroundImageFix" result="effect1_dropShadow_3282_9131"/>
<feBlend mode="normal" in="SourceGraphic" in2="effect1_dropShadow_3282_9131" result="shape"/>
</filter>
</defs>
</svg>
